<?xml version="1.0" encoding="utf-8"?>
<!-- Generator: Adobe Illustrator 25.1.0, SVG Export Plug-In . SVG Version: 6.00 Build 0)  -->
<svg version="1.1" xmlns="http://www.w3.org/2000/svg" xmlns:xlink="http://www.w3.org/1999/xlink" x="0px" y="0px"
	 viewBox="0 0 1470.7 892.9" style="enable-background:new 0 0 1470.7 892.9;" xml:space="preserve">
<style type="text/css">
	.st0{display:none;}
	.st1{display:inline;fill-rule:evenodd;clip-rule:evenodd;fill:#061A40;}
	.st2{fill-rule:evenodd;clip-rule:evenodd;fill:#C1EDCC;}
	.st3{fill-rule:evenodd;clip-rule:evenodd;fill:#048BA8;}
</style>
<g id="Background" class="st0">
	<rect class="st1" width="1470.7" height="892.9"/>
</g>
<g id="Logo">
	<g>
		<path class="st2" d="M1205.6,588c4.9-1.1,9.8-0.5,14.2,1.1c4.9,1.6,8.7,3.8,12.6,7.6c2.7,2.7,4.9,6,6.6,9.8
			c1.6,3.8,2.2,7.6,2.2,12c0,3.3-0.5,6.6-1.6,9.3c-1.1,3.3-2.7,6-4.4,8.7c-3.3,4.4-7.1,7.6-12,9.8c-4.9,2.2-9.8,3.3-14.8,2.7
			c-2.7,0-5.5-0.5-7.6-1.6c-2.7-1.1-4.9-2.2-7.1-3.3c-2.2-1.6-4.4-3.3-6-4.9c-1.6-2.2-3.3-4.4-4.4-6.6c-1.1-2.2-2.2-4.9-2.7-7.1
			c-0.5-2.7-0.5-4.9-0.5-7.6s0.5-4.9,1.1-7.6c0.5-2.7,1.6-4.9,3.3-7.1c0.5-1.1,1.1-1.6,1.6-2.7l0,0c2.2-3.3,5.5-6,8.7-7.6
			c3.3-2.2,7.1-3.3,10.9-3.8V588z M1226.3,628.9c1.1-2.2,2.2-3.8,2.7-6.6c0.5-2.2,0.5-4.4,0.5-7.1c-0.5-2.2-1.1-4.4-2.2-6
			c-1.1-2.2-2.7-4.4-4.9-6c-2.2-1.6-4.4-2.7-7.1-3.3c-2.7-0.5-4.9-1.1-7.7-0.5c-2.7,0.5-4.9,1.1-7.1,2.7c-2.7,1.6-4.9,4.4-6.6,7.1
			c-1.6,3.3-2.2,6.6-2.2,9.8c0,2.7,0.5,4.9,2.2,7.6c0.5,0.5,0.5,1.1,1.1,1.6c0.5,0.5,0.5,1.1,1.1,1.6c-0.5-1.1-1.1-2.2-1.6-2.7
			c1.1,1.6,2.2,3.3,3.8,4.9s3.3,2.7,5.5,3.3c2.2,1.1,4.4,1.6,6.6,1.6s4.4,0,6.6-1.1c2.2-0.5,3.8-1.6,5.5-2.7s3.3-2.7,4.4-4.4H1226.3
			z M1299,587.4c1.6,0,3.3,0.5,4.4,1.6c1.1,1.1,1.6,2.7,1.6,4.4v21.9v1.6v26.2l0,0v0.5v0.5v0.5c0,0,0,0,0,0.5l0,0l0,0l0,0v0.5l0,0
			c0,0,0,0,0,0.5l0,0l0,0l0,0l0,0l0,0l0,0l0,0l-0.5,0.5l0,0l0,0c0,0-0.5,0-0.5,0.5l0,0l0,0l0,0c0,0,0,0-0.5,0l0,0l0,0l0,0l0,0l0,0
			l0,0l0,0l0,0l0,0l0,0h-0.5l0,0l0,0h-0.5h-0.5l0,0l0,0h-0.5c0,0,0,0-0.5,0l0,0l0,0l0,0l0,0l0,0l0,0c0,0,0,0-0.5,0l0,0
			c0,0,0,0-0.5,0l0,0h-0.5l0,0l0,0c0,0,0,0-0.5,0l0,0l0,0l-33.9-37.7v6v1.6v26.2c0,1.6-0.5,3.3-1.6,4.4c-1.1,1.1-2.7,1.6-4.4,1.6
			c-1.6,0-3.3-0.5-4.4-1.6c-1.1-1.1-1.6-2.7-1.6-4.4v-26.2v-1.6V594l0,0v-0.5l0,0c0-1.6,0.5-2.7,1.6-3.8c1.1-1.1,2.7-1.6,4.4-1.6
			c1.6,0,3.3,0.5,4.4,2.2l33.9,37.7v-10.4v-1.6V594c0-1.6,0.5-3.3,1.6-4.4c1.1-1.1,2.7-1.6,4.4-1.6L1299,587.4z M1374.4,618
			c0,1.6-0.5,3.3-1.6,4.4c-1.1,1.1-2.7,1.6-4.4,1.6h-42.6c0,0.5,0.5,1.6,1.1,2.2c0.5,0.5,0.5,1.1,1.1,1.6s0.5,1.1,1.1,1.6
			c-0.5-0.5-0.5-1.1-1.1-1.6c0-0.5-0.5-1.1-0.5-1.6c1.1,1.6,2.2,3.3,3.8,4.9c1.6,1.6,3.3,2.7,5.5,3.3c2.2,1.1,4.4,1.6,7.1,1.6h0.5
			c1.6,0,3.3,0.5,4.4,1.6c1.1,1.1,1.6,2.7,1.6,4.4c0,1.6-0.5,3.3-1.6,4.4c-1.1,1.1-2.7,1.6-4.4,1.6c-0.5,0-0.5,0-1.1,0
			c-0.5,0-0.5,0-1.1,0c-2.7,0-5.5-0.5-7.7-1.6c-2.7-1.1-4.9-2.2-7.1-3.3c-2.2-1.6-4.4-3.3-6-4.9c-1.6-2.2-3.3-4.4-4.4-6.6
			c-2.2-4.9-3.3-9.8-3.3-15.3s1.6-10.4,4.4-14.8c0-0.5,0.5-0.5,0.5-1.1c0.5-0.5,0.5-0.5,1.1-1.1c2.2-3.3,5.5-6,8.7-7.6
			c3.3-2.2,7.1-3.3,10.9-3.8c4.9-0.5,9.8-0.5,14.8,1.1c4.9,1.6,8.7,3.8,12,7.6c2.7,2.7,4.9,6,6.6,9.8c1.6,3.8,2.2,7.6,2.2,11.5l0,0
			l0,0H1374.4z M1334,602.2c-1.6,1.1-3.3,2.7-4.9,4.4c-1.1,1.6-2.2,3.8-3.3,5.5h36.1c-0.5-1.1-0.5-2.2-1.1-3.3
			c-1.1-2.2-2.7-4.4-4.9-6s-4.4-2.7-7.1-3.3c-2.7-0.5-4.9-1.1-7.6-0.5c-2.7,0.5-4.9,1.1-7.1,2.7V602.2z"/>
		<polygon class="st2" points="700.7,272.1 829.1,150.8 829.1,467.7 767.3,409.3 767.3,286.3 742.7,310.9 		"/>
		<path class="st3" d="M551.5,150.8c60.7,56.3,120.2,113.1,181.4,169.9l-42.1,41.5l-77-76.5v123.5h135.5l61.7,57.4H552l0,0l0,0
			V150.3L551.5,150.8z"/>
		<path class="st3" d="M795.7,576.5c-5.5,0-9.8-1.6-13.7-5.5s-5.5-8.2-5.5-13.7s1.6-9.8,5.5-13.7s8.2-5.5,13.7-5.5s9.8,1.6,13.7,5.5
			s5.5,8.2,5.5,13.7s-1.6,9.8-5.5,13.7S801.2,576.5,795.7,576.5z M795.7,599.4c5.5,0,9.8,1.6,13.7,5.5c3.8,3.8,5.5,8.2,5.5,13.7
			v144.8c0,5.5-1.6,9.8-5.5,13.7s-8.2,5.5-13.7,5.5s-9.8-1.6-13.7-5.5s-5.5-8.2-5.5-13.7V618.6c0-5.5,1.6-9.8,5.5-13.7
			C785.9,601.1,790.3,599.4,795.7,599.4z M1022,586.3c5.5,0,9.8,1.6,13.7,5.5c3.8,3.8,5.5,8.2,5.5,13.7v79.8
			c0,13.7-2.7,26.2-7.6,38.2c-5.5,12-12,22.4-21.3,31.1c-8.7,8.7-19.1,15.8-31.1,21.3c-12,5.5-24.6,7.6-38.2,7.6s-26.8-2.7-38.2-7.6
			c-12-5.5-22.4-12-31.1-21.3c-8.7-8.7-15.8-19.1-21.3-31.1c-5.5-12-7.6-24.6-7.6-38.2v-79.8c0-5.5,1.6-9.8,5.5-13.7
			c3.8-3.8,8.2-5.5,13.7-5.5s9.8,1.6,13.7,5.5s5.5,8.2,5.5,13.7v79.8c0,8.2,1.6,16.4,4.9,23.5c3.3,7.1,7.6,13.7,13.1,19.1
			s12,9.8,19.1,13.1s15.3,4.9,23.5,4.9s15.8-1.6,23.5-4.9c7.1-3.3,13.7-7.6,19.1-13.1s9.8-12,13.1-19.1c3.3-7.1,4.9-14.8,4.9-23.5
			h-0.5v-79.8c0-5.5,1.6-9.8,5.5-13.7s8.2-5.5,13.7-5.5H1022z M1208.8,725.1c0,8.2-1.6,15.3-4.4,22.4c-3.3,7.1-7.1,13.1-12.6,18.6
			s-11.5,9.3-18.6,12.6c-7.1,3.3-14.8,4.9-22.4,4.9h-84.7c-5.5,0-9.8-1.6-13.7-5.5s-5.5-8.2-5.5-13.7s1.6-9.8,5.5-13.7
			s8.2-5.5,13.7-5.5h84.1c5.5,0,10.4-2.2,14.2-6s6-8.7,6-14.2c0-6-2.2-10.9-6-14.8s-8.7-6-14.2-6h-39.9c-8.2,0-15.8-1.6-22.9-4.4
			c-7.1-3.3-13.1-7.1-18.6-12.6s-9.3-11.5-12.6-18.6s-4.4-14.8-4.4-22.9s1.6-15.8,4.4-22.9c3.3-7.1,7.1-13.1,12.6-18.6
			s11.5-9.3,18.6-12.6c7.1-3.3,14.8-4.9,22.9-4.9h38.8c5.5,0,9.8,1.6,13.7,5.5s5.5,8.2,5.5,13.7s-1.6,9.8-5.5,13.7
			s-8.2,5.5-13.7,5.5h-39.3c-5.5,0-10.4,2.2-14.2,6c-3.8,3.8-6,8.7-6,14.8c0,5.5,2.2,10.4,6,14.2c3.8,3.8,8.7,6,14.2,6h39.9
			c8.2,0,15.8,1.6,22.9,4.9c7.1,3.3,13.1,7.1,18.6,12.6s9.3,11.5,12.6,18.6c3.3,7.1,4.4,14.8,4.4,22.9H1208.8z M654.8,631.1
			c31.1,1.1,56.8,24,56.8,54.1c0,30.1-21.9,51.4-53,51.9c-26.8,0.5-35.5-9.3-54.6-22.9C576.6,694,537.3,624,485.9,600
			c-12.6-6-26.8-8.7-41.5-8.7c-53.5,0-96.7,42.1-96.7,93.4c0,51.4,43.2,93.4,96.7,93.4c42.6,0,78.7-32.2,98.9-56.3l-25.7-30.1
			c0,0-30.6,41-72.7,45.9c-31.1,3.8-56.8-24-56.8-54.1c0-30.1,25.7-54.1,56.8-54.1c19.1,0,41,17.5,46.4,22.9
			c26.2,16.9,49.7,63.9,109.3,108.2c15.8,10.9,35,17.5,56.3,17.5c53.5,0,96.7-42.1,96.7-93.4c0-51.4-43.2-93.4-96.7-93.4
			c-24.6,0-44.3,7.1-62.3,19.7v-47c0-5.5-1.6-9.8-5.5-13.7c-3.8-3.8-8.2-5.5-13.7-5.5s-9.8,1.6-13.7,5.5c-3.8,3.8-5.5,8.2-5.5,13.7
			V647l0,0v0.5l0,0l0,0l24.6,30.1C581,677.6,622.5,630,654.8,631.1z M315.4,783.6c-5.5,0-9.8-1.6-13.1-5.5
			c-3.8-3.8-5.5-8.2-5.5-13.7V650.8l-24.6,24.6c-4.9,4.9-10.4,8.7-16.4,11.5s-12.6,3.8-19.7,3.8c-7.1,0-13.7-1.1-19.7-3.8
			c-6.6-2.7-12-6.6-16.4-11.5l-24.6-24.6v113.7c0,5.5-1.6,9.8-5.5,13.7s-8.2,5.5-13.7,5.5s-9.8-1.6-13.7-5.5
			c-3.8-3.8-5.5-8.2-5.5-13.7v-159c0-5.5,1.6-9.8,5.5-13.7c3.8-3.8,8.2-5.5,13.7-5.5c3.8,0,7.6,1.1,10.9,3.3V589l2.2,2.2l54.6,54.6
			c3.8,3.3,7.6,4.9,12.6,4.9c4.4,0,8.7-1.6,12-4.9l56.3-56.8h0.5c3.3-2.2,7.1-3.3,10.9-3.3c5.5,0,9.8,1.6,13.7,5.5
			c3.8,3.8,5.5,8.2,5.5,13.7v159c0,5.5-1.6,9.8-5.5,13.7c-3.8,3.8-8.2,5.5-13.7,5.5L315.4,783.6z"/>
	</g>
</g>
</svg>
