<?xml version="1.0" encoding="utf-8"?>
<!-- Generator: Adobe Illustrator 25.1.0, SVG Export Plug-In . SVG Version: 6.00 Build 0)  -->
<svg version="1.1" id="Слой_1" xmlns="http://www.w3.org/2000/svg" xmlns:xlink="http://www.w3.org/1999/xlink" x="0px" y="0px"
	 viewBox="0 0 1470.7 892.9" style="enable-background:new 0 0 1470.7 892.9;" xml:space="preserve">
<style type="text/css">
	.st0{fill:#048BA8;}
	.st1{fill-rule:evenodd;clip-rule:evenodd;fill:#048BA8;}
	.st2{fill-rule:evenodd;clip-rule:evenodd;fill:#061A40;}
	.st3{fill:#061A40;}
</style>
<g>
	<path class="st0" d="M1184.8,581.9c4.9-1.1,9.8-0.5,14.2,1.1c4.9,1.6,8.7,3.8,12.6,7.6c2.7,2.7,4.9,6,6.6,9.8
		c1.6,3.8,2.2,7.6,2.2,12c0,3.3-0.5,6.6-1.6,9.3c-1.1,3.3-2.7,6-4.4,8.7c-3.3,4.4-7.1,7.6-12,9.8c-4.9,2.2-9.8,3.3-14.8,2.7
		c-2.7,0-5.5-0.5-7.7-1.6c-2.7-1.1-4.9-2.2-7.1-3.3c-2.2-1.6-4.4-3.3-6-4.9c-1.6-2.2-3.3-4.4-4.4-6.6c-1.1-2.2-2.2-4.9-2.7-7.1
		c-0.5-2.7-0.5-4.9-0.5-7.6s0.5-4.9,1.1-7.6c0.5-2.7,1.6-4.9,3.3-7.1c0.5-1.1,1.1-1.6,1.6-2.7l0,0c2.2-3.3,5.5-6,8.7-7.6
		c3.3-2.2,7.1-3.3,10.9-3.8V581.9z M1205.5,622.9c1.1-2.2,2.2-3.8,2.7-6.6c0.5-2.2,0.5-4.4,0.5-7.1c-0.5-2.2-1.1-4.4-2.2-6
		c-1.1-2.2-2.7-4.4-4.9-6c-2.2-1.6-4.4-2.7-7.1-3.3c-2.7-0.5-4.9-1.1-7.6-0.5c-2.7,0.5-4.9,1.1-7.1,2.7c-2.7,1.6-4.9,4.4-6.6,7.1
		c-1.6,3.3-2.2,6.6-2.2,9.8c0,2.7,0.5,4.9,2.2,7.6c0.5,0.5,0.5,1.1,1.1,1.6c0.5,0.5,0.5,1.1,1.1,1.6c-0.5-1.1-1.1-2.2-1.6-2.7
		c1.1,1.6,2.2,3.3,3.8,4.9s3.3,2.7,5.5,3.3c2.2,1.1,4.4,1.6,6.6,1.6s4.4,0,6.6-1.1c2.2-0.5,3.8-1.6,5.5-2.7c1.6-1.1,3.3-2.7,4.4-4.4
		H1205.5z M1278.2,581.4c1.6,0,3.3,0.5,4.4,1.6c1.1,1.1,1.6,2.7,1.6,4.4v21.9v1.6v26.2l0,0v0.5v0.5v0.5c0,0,0,0,0,0.5l0,0l0,0l0,0
		v0.5l0,0c0,0,0,0,0,0.5l0,0l0,0l0,0l0,0l0,0l0,0l0,0l-0.5,0.5l0,0l0,0c0,0-0.5,0-0.5,0.5l0,0l0,0l0,0c0,0,0,0-0.5,0l0,0l0,0l0,0
		l0,0l0,0l0,0l0,0l0,0l0,0l0,0h-0.5l0,0l0,0h-0.5h-0.5l0,0l0,0h-0.5c0,0,0,0-0.5,0l0,0l0,0l0,0l0,0l0,0l0,0c0,0,0,0-0.5,0l0,0
		c0,0,0,0-0.5,0l0,0h-0.5l0,0l0,0c0,0,0,0-0.5,0l0,0l0,0l-33.9-37.7v6v1.6v26.2c0,1.6-0.5,3.3-1.6,4.4c-1.1,1.1-2.7,1.6-4.4,1.6
		s-3.3-0.5-4.4-1.6c-1.1-1.1-1.6-2.7-1.6-4.4v-26.2v-1.6V588l0,0v-0.5l0,0c0-1.6,0.5-2.7,1.6-3.8c1.1-1.1,2.7-1.6,4.4-1.6
		s3.3,0.5,4.4,2.2l33.9,37.7v-10.4v-1.6V588c0-1.6,0.5-3.3,1.6-4.4c1.1-1.1,2.7-1.6,4.4-1.6L1278.2,581.4z M1353.6,612
		c0,1.6-0.5,3.3-1.6,4.4c-1.1,1.1-2.7,1.6-4.4,1.6H1305c0,0.5,0.5,1.6,1.1,2.2c0.5,0.5,0.5,1.1,1.1,1.6c0.5,0.5,0.5,1.1,1.1,1.6
		c-0.5-0.5-0.5-1.1-1.1-1.6c0-0.5-0.5-1.1-0.5-1.6c1.1,1.6,2.2,3.3,3.8,4.9c1.6,1.6,3.3,2.7,5.5,3.3c2.2,1.1,4.4,1.6,7.1,1.6h0.5
		c1.6,0,3.3,0.5,4.4,1.6s1.6,2.7,1.6,4.4s-0.5,3.3-1.6,4.4s-2.7,1.6-4.4,1.6c-0.5,0-0.5,0-1.1,0s-0.5,0-1.1,0
		c-2.7,0-5.5-0.5-7.6-1.6c-2.7-1.1-4.9-2.2-7.1-3.3c-2.2-1.6-4.4-3.3-6-4.9c-1.6-2.2-3.3-4.4-4.4-6.6c-2.2-4.9-3.3-9.8-3.3-15.3
		s1.6-10.4,4.4-14.8c0-0.5,0.5-0.5,0.5-1.1c0.5-0.5,0.5-0.5,1.1-1.1c2.2-3.3,5.5-6,8.7-7.6c3.3-2.2,7.1-3.3,10.9-3.8
		c4.9-0.5,9.8-0.5,14.8,1.1c4.9,1.6,8.7,3.8,12,7.6c2.7,2.7,4.9,6,6.6,9.8s2.2,7.6,2.2,11.5l0,0l0,0H1353.6z M1313.2,596.2
		c-1.6,1.1-3.3,2.7-4.9,4.4c-1.1,1.6-2.2,3.8-3.3,5.5h36.1c-0.5-1.1-0.5-2.2-1.1-3.3c-1.1-2.2-2.7-4.4-4.9-6
		c-2.2-1.6-4.4-2.7-7.1-3.3c-2.7-0.5-4.9-1.1-7.6-0.5c-2.7,0.5-4.9,1.1-7.1,2.7V596.2z"/>
	<polygon class="st1" points="679.9,266.1 808.3,145.4 808.3,461.7 746.5,403.8 746.5,280.9 722,305.5 	"/>
	<path class="st2" d="M530.7,145.4c60.7,56.3,120.2,113.1,181.4,169.9L670,356.8l-77-76.5v123.5h135.5l61.7,57.4h-259l0,0l0,0V144.8
		L530.7,145.4z"/>
	<path class="st3" d="M775,571c-5.5,0-9.8-1.6-13.7-5.5c-3.8-3.8-5.5-8.2-5.5-13.7s1.6-9.8,5.5-13.7c3.8-3.8,8.2-5.5,13.7-5.5
		s9.8,1.6,13.7,5.5c3.8,3.8,5.5,8.2,5.5,13.7s-1.6,9.8-5.5,13.7C784.8,569.4,780.4,571,775,571z M775,594c5.5,0,9.8,1.6,13.7,5.5
		c3.8,3.8,5.5,8.2,5.5,13.7v144.8c0,5.5-1.6,9.8-5.5,13.7c-3.8,3.8-8.2,5.5-13.7,5.5s-9.8-1.6-13.7-5.5c-3.8-3.8-5.5-8.2-5.5-13.7
		V613.1c0-5.5,1.6-9.8,5.5-13.7C765.1,595.6,769.5,594,775,594z M1001.2,580.9c5.5,0,9.8,1.6,13.7,5.5c3.8,3.8,5.5,8.2,5.5,13.7
		v79.8c0,13.7-2.7,26.2-7.6,38.2c-5.5,12-12,22.4-21.3,31.1c-8.7,8.7-19.1,15.8-31.1,21.3c-12,5.5-24.6,7.6-38.2,7.6
		s-26.8-2.7-38.2-7.6c-12-5.5-22.4-12-31.1-21.3c-8.7-8.7-15.8-19.1-21.3-31.1c-5.5-12-7.6-24.6-7.6-38.2V600
		c0-5.5,1.6-9.8,5.5-13.7s8.2-5.5,13.7-5.5s9.8,1.6,13.7,5.5c3.8,3.8,5.5,8.2,5.5,13.7v79.8c0,8.2,1.6,16.4,4.9,23.5
		c3.3,7.1,7.6,13.7,13.1,19.1s12,9.8,19.1,13.1c7.1,3.3,15.3,4.9,23.5,4.9s15.8-1.6,23.5-4.9c7.1-3.3,13.7-7.6,19.1-13.1
		s9.8-12,13.1-19.1s4.9-14.8,4.9-23.5h-0.5V600c0-5.5,1.6-9.8,5.5-13.7s8.2-5.5,13.7-5.5H1001.2z M1188.1,719.6
		c0,8.2-1.6,15.3-4.4,22.4c-3.3,7.1-7.1,13.1-12.6,18.6c-5.5,5.5-11.5,9.3-18.6,12.6c-7.1,3.3-14.8,4.9-22.4,4.9h-84.7
		c-5.5,0-9.8-1.6-13.7-5.5c-3.8-3.8-5.5-8.2-5.5-13.7s1.6-9.8,5.5-13.7c3.8-3.8,8.2-5.5,13.7-5.5h84.1c5.5,0,10.4-2.2,14.2-6
		c3.8-3.8,6-8.7,6-14.2c0-6-2.2-10.9-6-14.8c-3.8-3.8-8.7-6-14.2-6h-39.9c-8.2,0-15.8-1.6-22.9-4.4c-7.1-3.3-13.1-7.1-18.6-12.6
		s-9.3-11.5-12.6-18.6c-3.3-7.1-4.4-14.8-4.4-22.9s1.6-15.8,4.4-22.9c3.3-7.1,7.1-13.1,12.6-18.6s11.5-9.3,18.6-12.6
		s14.8-4.9,22.9-4.9h38.8c5.5,0,9.8,1.6,13.7,5.5c3.8,3.8,5.5,8.2,5.5,13.7s-1.6,9.8-5.5,13.7c-3.8,3.8-8.2,5.5-13.7,5.5h-39.3
		c-5.5,0-10.4,2.2-14.2,6c-3.8,3.8-6,8.7-6,14.8c0,5.5,2.2,10.4,6,14.2c3.8,3.8,8.7,6,14.2,6h39.9c8.2,0,15.8,1.6,22.9,4.9
		c7.1,3.3,13.1,7.1,18.6,12.6c5.5,5.5,9.3,11.5,12.6,18.6s4.4,14.8,4.4,22.9H1188.1z M634,625.7c31.1,1.1,56.8,24,56.8,54.1
		c0,30.1-21.9,51.4-53,51.9c-26.8,0.5-35.5-9.3-54.6-22.9c-27.3-20.2-66.7-90.2-118-114.2c-12.6-6-26.8-8.7-41.5-8.7
		c-53.5,0-96.7,42.1-96.7,93.4c0,51.4,43.2,93.4,96.7,93.4c42.6,0,78.7-32.2,98.9-56.3l-25.7-30.1c0,0-30.6,41-72.7,45.9
		c-31.1,3.8-56.8-24-56.8-54.1c0-30.1,25.7-54.1,56.8-54.1c19.1,0,41,17.5,46.4,22.9c26.2,16.9,49.7,63.9,109.3,108.2
		c15.8,10.9,35,17.5,56.3,17.5c53.5,0,96.7-42.1,96.7-93.4c0-51.4-43.2-93.4-96.7-93.4c-24.6,0-44.3,7.1-62.3,19.7v-47
		c0-5.5-1.6-9.8-5.5-13.7s-8.2-5.5-13.7-5.5s-9.8,1.6-13.7,5.5s-5.5,8.2-5.5,13.7v83.1l0,0v0.5l0,0l0,0l24.6,30.1
		C560.2,672.1,601.7,624.6,634,625.7z M294.7,778.1c-5.5,0-9.8-1.6-13.1-5.5c-3.8-3.8-5.5-8.2-5.5-13.7V645.3l-24.6,24.6
		c-4.9,4.9-10.4,8.7-16.4,11.5c-6,2.7-12.6,3.8-19.7,3.8c-7.1,0-13.7-1.1-19.7-3.8c-6.6-2.7-12-6.6-16.4-11.5l-24.6-24.6V759
		c0,5.5-1.6,9.8-5.5,13.7c-3.8,3.8-8.2,5.5-13.7,5.5s-9.8-1.6-13.7-5.5c-3.8-3.8-5.5-8.2-5.5-13.7V600c0-5.5,1.6-9.8,5.5-13.7
		c3.8-3.8,8.2-5.5,13.7-5.5c3.8,0,7.6,1.1,10.9,3.3v-0.5l2.2,2.2l54.6,54.6c3.8,3.3,7.6,4.9,12.6,4.9c4.4,0,8.7-1.6,12-4.9
		l56.3-56.8h0.5c3.3-2.2,7.1-3.3,10.9-3.3c5.5,0,9.8,1.6,13.7,5.5c3.8,3.8,5.5,8.2,5.5,13.7v159c0,5.5-1.6,9.8-5.5,13.7
		c-3.8,3.8-8.2,5.5-13.7,5.5L294.7,778.1z"/>
</g>
</svg>
